<svg xmlns="http://www.w3.org/2000/svg" width="1600" height="1000" viewBox="0 0 1600 1000">
  <defs><style><![CDATA[
    .small{font:800 28px -apple-system,BlinkMacSystemFont,'Apple SD Gothic Neo','Noto Sans KR',Arial,sans-serif;letter-spacing:.08em}
    .title{font:950 86px -apple-system,BlinkMacSystemFont,'Apple SD Gothic Neo','Noto Sans KR',Arial,sans-serif}
    .subtitle{font:760 38px -apple-system,BlinkMacSystemFont,'Apple SD Gothic Neo','Noto Sans KR',Arial,sans-serif}
    .body{font:760 34px -apple-system,BlinkMacSystemFont,'Apple SD Gothic Neo','Noto Sans KR',Arial,sans-serif}
    .caption{font:800 24px -apple-system,BlinkMacSystemFont,'Apple SD Gothic Neo','Noto Sans KR',Arial,sans-serif}
  ]]></style><linearGradient id="sea" x1="0" x2="1" y1="0" y2="1"><stop offset="0" stop-color="#dbeeed"/><stop offset="1" stop-color="#f7f3ea"/></linearGradient></defs>
  <rect width="1600" height="1000" fill="#f7f3ea"/><circle cx="1345" cy="145" r="190" fill="url(#sea)"/><circle cx="1450" cy="245" r="68" fill="#e8b15c"/><path d="M1040 680 C1130 620 1240 640 1330 590 C1440 530 1520 570 1600 520 L1600 1000 L1040 1000 Z" fill="#c78316" opacity=".13"/>
  <rect x="48" y="48" width="1504" height="904" rx="34" fill="#fffdf7" stroke="#d7e1e5" stroke-width="3"/>
  <text x="96" y="126" fill="#c78316" class="small">예약 체크 · PAGE 19/20</text>
  <text x="96" y="245" fill="#162025" class="title"><tspan x="96" dy="0">결제 전 확인해야 할 것</tspan></text>
  <text x="96" y="438" fill="#60707a" class="subtitle"><tspan x="96" dy="0">가격보다 취소조건과 이동 피로를 먼저 봅니다</tspan></text>
  <line x1="96" y1="520" x2="1504" y2="520" stroke="#d7e1e5" stroke-width="3"/><circle cx="116" cy="573" r="7" fill="#c78316"/><text x="140" y="585" class="body"><tspan x="140" dy="0">무료취소 마감일, 세금 포함 총액, 조식 인원 포함 여부</tspan></text><circle cx="116" cy="677" r="7" fill="#c78316"/><text x="140" y="689" class="body"><tspan x="140" dy="0">공항 픽업 차량 크기, 부모님 계단 이동, 엘리베이터 여부</tspan></text><circle cx="116" cy="781" r="7" fill="#c78316"/><text x="140" y="793" class="body"><tspan x="140" dy="0">수영장 공사·레스토랑 운영·스파 동시 예약 가능 여부</tspan></text>
  <g transform="translate(1185 700)"><rect x="0" y="0" width="270" height="150" rx="22" fill="#dbeeed"/><rect x="22" y="54" width="54" height="74" rx="8" fill="#fffdf7"/><rect x="92" y="36" width="54" height="92" rx="8" fill="#fffdf7"/><rect x="162" y="64" width="54" height="64" rx="8" fill="#fffdf7"/><path d="M0 120 C62 98 124 138 190 112 C230 98 250 104 270 96 L270 150 L0 150 Z" fill="#c78316" opacity=".7"/></g>
  <text x="96" y="910" fill="#60707a" class="caption">2026 부모님 동남아 휴양 가이드 · 하루 한 번 외출 · 수영장/스파/숙소 식사 중심</text>
</svg>